<?xml version="1.0" encoding="UTF-8"?>
<svg version="1.1" xmlns="http://www.w3.org/2000/svg" width="32" height="32">
<path d="M0 0 C7.92 0 15.84 0 24 0 C24 7.92 24 15.84 24 24 C16.08 24 8.16 24 0 24 C0 16.08 0 8.16 0 0 Z " fill="#FB8D03" transform="translate(4,4)"/>
<path d="M0 0 C1.175625 0.165 2.35125 0.33 3.5625 0.5 C4.5625 3.5 5.5625 6.5 6.5625 9.5 C5.9025 9.5 5.2425 9.5 4.5625 9.5 C4.5625 12.14 4.5625 14.78 4.5625 17.5 C3.5725 17.83 2.5825 18.16 1.5625 18.5 C1.2325 14.87 0.9025 11.24 0.5625 7.5 C-0.19177297 12.47906259 -0.19177297 12.47906259 -0.4375 17.5 C-1.7575 17.5 -3.0775 17.5 -4.4375 17.5 C-4.1075 15.52 -3.7775 13.54 -3.4375 11.5 C-4.4275 11.5 -5.4175 11.5 -6.4375 11.5 C-6.1075 13.81 -5.7775 16.12 -5.4375 18.5 C-6.7575 18.17 -8.0775 17.84 -9.4375 17.5 C-9.4375 14.86 -9.4375 12.22 -9.4375 9.5 C-10.0975 9.17 -10.7575 8.84 -11.4375 8.5 C-5.31196433 -0.07574994 -5.31196433 -0.07574994 0 0 Z " fill="#FEF9F2" transform="translate(18.4375,6.5)"/>
<path d="M0 0 C0.66 0.33 1.32 0.66 2 1 C0.68 2.32 -0.64 3.64 -2 5 C-0.68 5.33 0.64 5.66 2 6 C2 8.31 2 10.62 2 13 C1.67 12.34 1.34 11.68 1 11 C0.01 11 -0.98 11 -2 11 C-1.67 13.31 -1.34 15.62 -1 18 C-2.32 17.67 -3.64 17.34 -5 17 C-5 14.36 -5 11.72 -5 9 C-5.66 8.67 -6.32 8.34 -7 8 C-4.69 5.36 -2.38 2.72 0 0 Z " fill="#FEEDD7" transform="translate(14,7)"/>
<path d="M0 0 C0.33 0 0.66 0 1 0 C1 3.96 1 7.92 1 12 C-0.98 12 -2.96 12 -5 12 C-3.68 11.67 -2.36 11.34 -1 11 C-1.20625 9.741875 -1.4125 8.48375 -1.625 7.1875 C-2.21335669 3.5985242 -2.16617415 3.24926122 0 0 Z " fill="#FB9B22" transform="translate(19,13)"/>
<path d="M0 0 C1.65 0 3.3 0 5 0 C5 2.31 5 4.62 5 7 C4.67 6.34 4.34 5.68 4 5 C3.01 5 2.02 5 1 5 C0.67 5.66 0.34 6.32 0 7 C0 4.69 0 2.38 0 0 Z " fill="#FDD9AB" transform="translate(11,13)"/>
<path d="M0 0 C3.317124 4.422832 3.30466674 5.71910976 3 11 C2.01 11.33 1.02 11.66 0 12 C0 8.04 0 4.08 0 0 Z " fill="#FDDFB9" transform="translate(20,13)"/>
</svg>
